<svg width="20" height="21" viewBox="0 0 20 21" fill="none" xmlns="http://www.w3.org/2000/svg">
<path d="M0.215296 0.818115L0.182129 7.78479L7.18213 7.81812L4.35313 4.97565C7.48951 2.03834 12.414 2.10021 15.4751 5.16126C18.5992 8.28546 18.5992 13.3508 15.4751 16.475C12.3509 19.5992 7.28554 19.5992 4.16135 16.475L2.74713 17.8892C6.65237 21.7944 12.984 21.7944 16.8893 17.8892C20.7945 13.9839 20.7945 7.65229 16.8893 3.74705C13.0482 -0.0939724 6.85997 -0.157139 2.94175 3.55755L0.215296 0.818115Z" fill="#313131"/>
<path d="M8.50012 5.50006H10.5001V10.0858L14.2072 13.793L12.793 15.2072L8.50012 10.9143V5.50006Z" fill="#313131"/>
</svg>
