<svg width="25" height="25" viewBox="0 0 25 25" fill="none" xmlns="http://www.w3.org/2000/svg">
<g clip-path="url(#clip0_707_2020)">
<path d="M12.5 2.5C6.98 2.5 2.5 6.98 2.5 12.5C2.5 18.02 6.98 22.5 12.5 22.5C18.02 22.5 22.5 18.02 22.5 12.5C22.5 6.98 18.02 2.5 12.5 2.5ZM13.5 19.5H11.5V17.5H13.5V19.5ZM15.57 11.75L14.67 12.67C13.95 13.4 13.5 14 13.5 15.5H11.5V15C11.5 13.9 11.95 12.9 12.67 12.17L13.91 10.91C14.28 10.55 14.5 10.05 14.5 9.5C14.5 8.4 13.6 7.5 12.5 7.5C11.4 7.5 10.5 8.4 10.5 9.5H8.5C8.5 7.29 10.29 5.5 12.5 5.5C14.71 5.5 16.5 7.29 16.5 9.5C16.5 10.38 16.14 11.18 15.57 11.75Z" fill="white"/>
</g>
<defs>
<clipPath id="clip0_707_2020">
<rect width="24" height="24" fill="white" transform="translate(0.5 0.5)"/>
</clipPath>
</defs>
</svg>
