<svg width="7" height="12" viewBox="0 0 7 12" fill="none" xmlns="http://www.w3.org/2000/svg">
<mask id="path-1-inside-1_429_2081" fill="white">
<path d="M4.88756 6L0.256281 10.5368C-0.0854273 10.8715 -0.0854273 11.4142 0.256281 11.7489C0.59799 12.0837 1.15201 12.0837 1.49372 11.7489L6.74372 6.60609C7.08543 6.27136 7.08543 5.72864 6.74372 5.39391L1.49372 0.251051C1.15201 -0.083684 0.59799 -0.083684 0.256281 0.251051C-0.0854273 0.585786 -0.0854273 1.1285 0.256281 1.46323L4.88756 6Z"/>
</mask>
<path d="M4.88756 6L0.256281 10.5368C-0.0854273 10.8715 -0.0854273 11.4142 0.256281 11.7489C0.59799 12.0837 1.15201 12.0837 1.49372 11.7489L6.74372 6.60609C7.08543 6.27136 7.08543 5.72864 6.74372 5.39391L1.49372 0.251051C1.15201 -0.083684 0.59799 -0.083684 0.256281 0.251051C-0.0854273 0.585786 -0.0854273 1.1285 0.256281 1.46323L4.88756 6Z" fill="#313131"/>
<path d="M4.88756 6L12.5851 13.8579L20.6068 6L12.5851 -1.85794L4.88756 6ZM0.256281 10.5368L-7.4413 2.67882L0.256281 10.5368ZM1.49372 11.7489L9.1913 19.6069H9.1913L1.49372 11.7489ZM6.74372 6.60609L-0.95386 -1.25185L6.74372 6.60609ZM6.74372 5.39391L-0.95386 13.2519L-0.95386 13.2519L6.74372 5.39391ZM1.49372 0.251051L9.1913 -7.60689H9.1913L1.49372 0.251051ZM0.256281 1.46323L7.95386 -6.39471H7.95386L0.256281 1.46323ZM-2.81001 -1.85794L-7.4413 2.67882L7.95386 18.3947L12.5851 13.8579L-2.81001 -1.85794ZM-7.4413 2.67882C-12.1862 7.32692 -12.1862 14.9588 -7.4413 19.6069L7.95386 3.891C12.0154 7.86964 12.0154 14.4161 7.95386 18.3947L-7.4413 2.67882ZM-7.4413 19.6069C-2.8229 24.131 4.5729 24.131 9.1913 19.6069L-6.20386 3.891C-2.26888 0.0363321 4.01888 0.0363321 7.95386 3.891L-7.4413 19.6069ZM9.1913 19.6069L14.4413 14.464L-0.95386 -1.25185L-6.20386 3.891L9.1913 19.6069ZM14.4413 14.464C19.1862 9.81593 19.1862 2.18407 14.4413 -2.46404L-0.95386 13.2519C-5.01538 9.27322 -5.01538 2.72678 -0.95386 -1.25185L14.4413 14.464ZM14.4413 -2.46404L9.1913 -7.60689L-6.20386 8.10899L-0.95386 13.2519L14.4413 -2.46404ZM9.1913 -7.60689C4.5729 -12.131 -2.8229 -12.131 -7.4413 -7.60689L7.95386 8.109C4.01888 11.9637 -2.26888 11.9637 -6.20386 8.109L9.1913 -7.60689ZM-7.4413 -7.60689C-12.1862 -2.95879 -12.1862 4.67308 -7.4413 9.32118L7.95386 -6.39471C12.0154 -2.41608 12.0154 4.13036 7.95386 8.109L-7.4413 -7.60689ZM-7.4413 9.32118L-2.81001 13.8579L12.5851 -1.85794L7.95386 -6.39471L-7.4413 9.32118Z" fill="#384D6C" mask="url(#path-1-inside-1_429_2081)"/>
</svg>
